<svg width="422" height="111" viewBox="0 0 422 111" fill="none" xmlns="http://www.w3.org/2000/svg">
<path d="M14.4404 82.6543C14.6475 82.6543 14.8372 82.6715 15.0098 82.7061C15.4583 82.7751 15.6826 83.2064 15.6826 84H1.03516V82.6543C1.48372 82.6543 1.88053 82.6198 2.22559 82.5508C3.43327 82.3438 4.03711 81.4811 4.03711 79.9629V63.0898H1.03516V61.7441H10.0928L10.4551 66.5576C10.8346 65.5915 11.3867 64.6943 12.1113 63.8662C13.7331 62.1755 15.6136 61.3301 17.7529 61.3301C18.2015 61.3301 18.6328 61.3818 19.0469 61.4854C20.7376 61.9339 21.583 63.0208 21.583 64.7461C21.583 65.2292 21.4795 65.695 21.2725 66.1436C20.6859 67.4548 19.7025 68.1104 18.3223 68.1104C17.9082 68.1104 17.5286 68.0586 17.1836 67.9551C16.459 67.679 15.7861 66.9889 15.165 65.8848C14.7165 65.0911 14.3024 64.6943 13.9229 64.6943C13.7158 64.6943 13.4915 64.7461 13.25 64.8496C11.7318 65.6432 10.8519 67.8516 10.6104 71.4746V82.6543H14.4404ZM41.9238 84.5176C39.1634 84.3451 37.4209 82.7751 36.6963 79.8076C36.5238 80.2907 36.2995 80.7565 36.0234 81.2051C34.6432 83.4134 32.4867 84.5176 29.5537 84.5176C28.5876 84.5176 27.7077 84.3968 26.9141 84.1553C24.2227 83.2926 22.877 81.3258 22.877 78.2549C22.9115 73.7347 27.3626 71.3883 36.2305 71.2158V67.8516C36.2305 66.8509 36.1615 65.9883 36.0234 65.2637C35.6784 63.2969 34.695 62.3135 33.0732 62.3135C32.5902 62.3135 32.1589 62.3997 31.7793 62.5723C31.1927 62.9173 30.7096 63.7799 30.3301 65.1602C30.1921 65.6432 30.0885 65.9883 30.0195 66.1953C29.502 67.6445 28.5013 68.3691 27.0176 68.3691C26.6725 68.3691 26.3447 68.3174 26.0342 68.2139C24.7575 67.8688 24.1191 67.0234 24.1191 65.6777C24.1191 65.0911 24.2744 64.5391 24.585 64.0215C25.7926 61.9857 28.7428 60.9678 33.4355 60.9678C34.6432 60.9678 35.7646 61.0885 36.7998 61.3301C40.8024 62.3307 42.8037 64.9876 42.8037 69.3008V80.1182C42.8037 81.7744 43.1833 82.637 43.9424 82.7061C44.943 82.6715 45.5469 81.4639 45.7539 79.083L47.0996 79.1348C46.9961 80.2044 46.8408 81.0843 46.6338 81.7744C46.0127 83.6032 44.4427 84.5176 41.9238 84.5176ZM32.2451 82.292C32.4867 82.292 32.7627 82.2402 33.0732 82.1367C34.5225 81.5846 35.5749 80.1009 36.2305 77.6855V72.665C34.6777 72.734 33.401 72.9238 32.4004 73.2344C30.5371 73.9245 29.6055 75.4082 29.6055 77.6855C29.64 80.6875 30.5199 82.223 32.2451 82.292ZM59.2627 82.6543C59.4697 82.6543 59.6595 82.6715 59.832 82.7061C60.2806 82.7751 60.5049 83.2064 60.5049 84H48.3936V82.6543C48.6696 82.6543 48.9284 82.637 49.1699 82.6025C50.6536 82.43 51.3955 81.5501 51.3955 79.9629V63.0898H48.3936V61.7441H57.6064L57.8652 65.7812C58.1758 65.1602 58.5898 64.5563 59.1074 63.9697C60.8672 61.9684 63.0065 60.9678 65.5254 60.9678C66.4225 60.9678 67.2852 61.1058 68.1133 61.3818C71.1497 62.4515 72.668 65.1257 72.668 69.4043V82.6543H74.376C74.583 82.6543 74.79 82.6715 74.9971 82.7061C75.4456 82.7751 75.6699 83.2064 75.6699 84H63.7139V82.6543C64.1969 82.6543 64.611 82.6025 64.9561 82.499C65.7152 82.2575 66.0947 81.4121 66.0947 79.9629V68.5244C66.0947 68.0413 66.0602 67.5755 65.9912 67.127C65.6462 64.8151 64.4902 63.6592 62.5234 63.6592C62.0059 63.6592 61.5055 63.7799 61.0225 64.0215C59.2627 64.8841 58.262 66.6784 58.0205 69.4043L57.9688 82.6543H59.2627ZM95.959 84L95.2344 79.1348C95.0618 79.5833 94.8548 80.0146 94.6133 80.4287C93.0605 83.1546 90.6797 84.5176 87.4707 84.5176C85.5384 84.5176 83.7786 83.931 82.1914 82.7578C79.3965 80.722 77.999 77.5648 77.999 73.2861C77.999 69.8356 78.8962 66.9717 80.6904 64.6943C82.7607 62.1755 85.4349 60.916 88.7129 60.916C91.1628 60.916 93.2676 61.6751 95.0273 63.1934V51.7031H90.3174V50.3574H101.601V82.6025H103.981C104.223 82.6025 104.43 82.6198 104.603 82.6543C105.017 82.7578 105.224 83.2064 105.224 84H95.959ZM85.0898 72.665C85.0898 73.9762 85.1761 75.1667 85.3486 76.2363C85.9352 80.1699 87.4362 82.1367 89.8516 82.1367C90.5762 82.1367 91.249 81.9469 91.8701 81.5674C94.0439 80.1527 95.1309 76.8574 95.1309 71.6816C95.1309 70.5085 95.0618 69.4043 94.9238 68.3691C94.3372 64.5391 92.8018 62.624 90.3174 62.624C89.6273 62.624 88.9717 62.7965 88.3506 63.1416C86.1768 64.4528 85.0898 67.6273 85.0898 72.665ZM114.644 72.7686C114.644 76.012 114.851 78.3757 115.265 79.8594C115.886 82.0677 117.266 83.1719 119.405 83.1719C120.613 83.1719 121.596 82.8096 122.355 82.085C123.667 80.7738 124.322 77.5993 124.322 72.5615C124.322 69.4215 124.115 67.127 123.701 65.6777C123.08 63.4349 121.665 62.3135 119.457 62.3135C118.146 62.3135 117.128 62.7103 116.403 63.5039C115.23 64.8496 114.644 67.9378 114.644 72.7686ZM119.716 60.9678C122.683 60.9678 125.219 61.7786 127.324 63.4004C130.05 65.5742 131.413 68.5934 131.413 72.458C131.413 75.3564 130.55 77.9098 128.825 80.1182C126.513 83.0511 123.322 84.5176 119.25 84.5176C116.283 84.5176 113.729 83.6204 111.59 81.8262C108.898 79.5488 107.553 76.4606 107.553 72.5615C107.553 69.8011 108.346 67.3857 109.934 65.3154C112.211 62.417 115.472 60.9678 119.716 60.9678ZM144.508 82.6543C144.715 82.6543 144.905 82.6715 145.077 82.7061C145.526 82.7751 145.75 83.2064 145.75 84H134.001V82.6543C134.277 82.6543 134.536 82.637 134.777 82.6025C136.261 82.43 137.003 81.5501 137.003 79.9629V63.0898H134.001V61.7441H143.214L143.473 65.5225C144.991 62.5205 147.406 61.0023 150.719 60.9678C151.271 60.9678 151.823 61.0368 152.375 61.1748C154.48 61.7959 155.946 63.3314 156.774 65.7812C158.431 62.6068 160.932 61.0023 164.279 60.9678C165.487 60.9678 166.608 61.2956 167.644 61.9512C169.886 63.3659 171.008 65.764 171.008 69.1455V82.6543H172.716C172.923 82.6543 173.13 82.6715 173.337 82.7061C173.785 82.7751 174.01 83.2064 174.01 84H162.209V82.6543C162.761 82.6543 163.192 82.6025 163.503 82.499C164.159 82.223 164.486 81.3776 164.486 79.9629V68.5244C164.486 67.6618 164.383 66.8682 164.176 66.1436C163.624 64.3838 162.606 63.5039 161.122 63.5039C160.777 63.5039 160.432 63.5729 160.087 63.7109C158.465 64.401 157.534 66.1781 157.292 69.042V69.4043V82.6543H158.172C158.379 82.6543 158.586 82.6715 158.793 82.7061C159.242 82.7751 159.466 83.2064 159.466 84H148.493V82.6543C149.045 82.6543 149.477 82.6025 149.787 82.499C150.443 82.223 150.771 81.3776 150.771 79.9629V68.5244C150.771 67.5928 150.65 66.7474 150.408 65.9883C149.856 64.401 148.942 63.6074 147.665 63.6074C147.216 63.6074 146.768 63.7282 146.319 63.9697C144.732 64.7979 143.835 66.5749 143.628 69.3008L143.576 82.6543H144.508Z" fill="white" fill-opacity="0.72"/>
<path d="M229.482 61.1572V84H184.234V72.1406H190.737V42.2563H184.234V30.397H229.482V51.7236H220.857L217.623 42.2563H207.987V51.0161H216.612V59.8433H207.987V72.1406H217.623L220.857 61.1572H229.482ZM254.582 72.1406V84H230.931V72.1406H236.254L245.485 42.2563H238.444V30.397H271.832L283.792 72.1406H289.082V84H258.928V72.1406H263.308L261.859 66.4131H249.697L248.181 72.1406H254.582ZM260.242 58.2598L256.334 41.8521L251.415 58.2598H260.242ZM327.254 71.8711V84H297.235V71.8711H302.761V42.2563H298.01L296.562 51.4878H287.094V30.397H337.53V51.4878H328.097L326.648 42.2563H321.729V71.8711H327.254ZM367.886 84.9771C366.044 84.9771 364.472 84.8423 363.169 84.5728C361.867 84.3032 360.654 83.8652 359.531 83.2588C358.43 82.6523 357.251 81.8662 355.993 80.9004L354.814 84H343.932V67.5923H354.747C355.443 69.479 356.51 70.8154 357.947 71.6016C359.407 72.3652 361.193 72.7471 363.304 72.7471C364.607 72.7471 365.719 72.4888 366.64 71.9722C367.561 71.4331 368.021 70.7256 368.021 69.8496C368.021 68.749 367.549 67.9292 366.606 67.3901C365.663 66.8286 364.337 66.312 362.63 65.8403C360.452 65.2563 358.475 64.6387 356.701 63.9873C354.949 63.3359 353.376 62.6621 351.984 61.9658C349.199 60.5732 346.953 58.5967 345.246 56.0361C343.539 53.4756 342.685 50.0728 342.685 45.8276C342.685 42.5708 343.393 39.6958 344.808 37.2026C346.2 34.7319 348.199 32.8115 350.805 31.4414C353.433 30.0488 356.521 29.3525 360.07 29.3525C364.405 29.3525 367.83 30.7339 370.346 33.4966L372.064 30.3296H381.733V46.4004H371.39C370.424 44.3789 369.357 42.9751 368.189 42.189C367.021 41.4028 365.416 41.0098 363.372 41.0098C361.822 41.0098 360.62 41.2905 359.767 41.8521C358.913 42.3911 358.486 43.1436 358.486 44.1094C358.486 45.1875 359.104 46.0073 360.339 46.5688C361.552 47.1528 363.282 47.6919 365.528 48.186C369.458 49.0845 372.85 50.2188 375.703 51.5889C378.488 52.959 380.711 54.9019 382.374 57.4175C384.058 59.9106 384.9 63.1338 384.9 67.0869C384.9 70.4336 384.204 73.4658 382.812 76.1836C381.396 78.9014 379.386 81.0464 376.781 82.6187C374.198 84.1909 371.233 84.9771 367.886 84.9771Z" fill="white" fill-opacity="0.72"/>
</svg>
